<svg xmlns="http://www.w3.org/2000/svg" xmlns:xlink="http://www.w3.org/1999/xlink" width="500" zoomAndPan="magnify" viewBox="0 0 375 374.999991" height="500" preserveAspectRatio="xMidYMid meet" version="1.0"><defs><g/><clipPath id="882443b5cf"><path d="M 134.5625 45.015625 L 240.3125 45.015625 L 240.3125 262 L 134.5625 262 Z M 134.5625 45.015625 " clip-rule="nonzero"/></clipPath><clipPath id="abdd946947"><path d="M 218 192.4375 L 227.234375 192.4375 L 227.234375 202 L 218 202 Z M 218 192.4375 " clip-rule="nonzero"/></clipPath><clipPath id="52d37d6670"><path d="M 147.734375 193 L 157 193 L 157 203 L 147.734375 203 Z M 147.734375 193 " clip-rule="nonzero"/></clipPath></defs><rect x="-37.5" width="450" fill="#ffffff" y="-37.499999" height="449.999989" fill-opacity="1"/><rect x="-37.5" width="450" fill="#00bf63" y="-37.499999" height="449.999989" fill-opacity="1"/><g clip-path="url(#882443b5cf)"><path fill="#000000" d="M 226.640625 261.472656 L 148.453125 261.472656 C 140.835938 261.472656 134.65625 255.308594 134.65625 247.707031 L 134.65625 59.597656 C 134.65625 51.996094 140.835938 45.835938 148.453125 45.835938 L 226.640625 45.835938 C 234.261719 45.835938 240.441406 51.996094 240.441406 59.597656 L 240.441406 247.707031 C 240.4375 255.308594 234.261719 261.472656 226.640625 261.472656 Z M 187.546875 256.878906 C 192.628906 256.878906 196.746094 252.773438 196.746094 247.707031 C 196.746094 242.636719 192.628906 238.53125 187.546875 238.53125 C 182.46875 238.53125 178.351562 242.636719 178.351562 247.707031 C 178.351562 252.773438 182.46875 256.878906 187.546875 256.878906 Z M 169.152344 57.304688 C 167.878906 57.304688 166.851562 58.332031 166.851562 59.597656 C 166.851562 60.863281 167.878906 61.890625 169.152344 61.890625 C 170.417969 61.890625 171.449219 60.867188 171.449219 59.597656 C 171.453125 58.332031 170.421875 57.304688 169.152344 57.304688 Z M 187.546875 48.128906 C 186.277344 48.128906 185.25 49.15625 185.25 50.421875 C 185.25 51.6875 186.277344 52.71875 187.546875 52.71875 C 188.816406 52.71875 189.847656 51.691406 189.847656 50.421875 C 189.847656 49.15625 188.816406 48.128906 187.546875 48.128906 Z M 196.746094 57.304688 L 178.347656 57.304688 C 177.078125 57.304688 176.050781 58.332031 176.050781 59.597656 C 176.050781 60.863281 177.078125 61.890625 178.347656 61.890625 L 196.746094 61.890625 C 198.015625 61.890625 199.042969 60.867188 199.042969 59.597656 C 199.046875 58.332031 198.019531 57.304688 196.746094 57.304688 Z M 233.539062 68.773438 L 141.558594 68.773438 L 141.558594 233.941406 L 233.542969 233.941406 L 233.542969 68.773438 Z M 187.546875 240.824219 C 191.359375 240.824219 194.449219 243.90625 194.449219 247.707031 C 194.449219 251.503906 191.359375 254.589844 187.546875 254.589844 C 183.738281 254.589844 180.648438 251.503906 180.648438 247.707031 C 180.648438 243.90625 183.738281 240.824219 187.546875 240.824219 Z M 187.546875 240.824219 " fill-opacity="1" fill-rule="evenodd"/></g><path fill="#000000" d="M 151.519531 198.664062 C 170.429688 219.4375 206.578125 218.808594 222.96875 197.386719 C 223.355469 196.882812 223.253906 196.15625 222.742188 195.773438 C 222.234375 195.386719 221.503906 195.488281 221.117188 195.996094 C 205.546875 216.34375 171.207031 216.851562 153.242188 197.121094 C 152.8125 196.648438 152.078125 196.609375 151.601562 197.039062 C 151.125 197.464844 151.085938 198.191406 151.519531 198.664062 Z M 151.519531 198.664062 " fill-opacity="1" fill-rule="evenodd"/><g clip-path="url(#abdd946947)"><path fill="#000000" d="M 218.996094 194.816406 C 221.929688 195.960938 224.011719 197.570312 224.777344 200.457031 C 224.941406 201.074219 225.578125 201.441406 226.199219 201.277344 C 226.816406 201.117188 227.1875 200.488281 227.027344 199.871094 C 226.0625 196.234375 223.539062 194.109375 219.84375 192.671875 C 219.246094 192.441406 218.574219 192.730469 218.339844 193.324219 C 218.105469 193.917969 218.398438 194.585938 218.996094 194.816406 Z M 218.996094 194.816406 " fill-opacity="1" fill-rule="evenodd"/></g><g clip-path="url(#52d37d6670)"><path fill="#000000" d="M 155.980469 195.613281 C 153.042969 196.757812 150.960938 198.367188 150.195312 201.253906 C 150.03125 201.871094 149.398438 202.238281 148.777344 202.078125 C 148.15625 201.914062 147.785156 201.285156 147.949219 200.667969 C 148.914062 197.03125 151.433594 194.90625 155.128906 193.46875 C 155.726562 193.238281 156.402344 193.527344 156.636719 194.121094 C 156.871094 194.714844 156.574219 195.382812 155.980469 195.613281 Z M 155.980469 195.613281 " fill-opacity="1" fill-rule="evenodd"/></g><g fill="#000000" fill-opacity="1"><g transform="translate(23.810157, 326.320759)"><g><path d="M 15.4375 -26.125 C 16.65625 -25.613281 17.765625 -24.957031 18.765625 -24.15625 C 19.773438 -23.351562 20.59375 -22.425781 21.21875 -21.375 C 21.84375 -20.320312 22.195312 -19.179688 22.28125 -17.953125 C 22.375 -16.734375 22.117188 -15.460938 21.515625 -14.140625 C 20.722656 -12.535156 19.625 -11.253906 18.21875 -10.296875 C 16.820312 -9.335938 15.273438 -8.722656 13.578125 -8.453125 C 11.890625 -8.191406 10.21875 -8.253906 8.5625 -8.640625 C 8.40625 -7.179688 8.25 -5.722656 8.09375 -4.265625 C 7.945312 -2.816406 7.796875 -1.367188 7.640625 0.078125 C 7.566406 0.785156 7.316406 1.363281 6.890625 1.8125 C 6.472656 2.257812 5.972656 2.550781 5.390625 2.6875 C 4.804688 2.832031 4.234375 2.832031 3.671875 2.6875 C 3.109375 2.550781 2.660156 2.265625 2.328125 1.828125 C 1.992188 1.398438 1.851562 0.816406 1.90625 0.078125 C 2.257812 -3.359375 2.601562 -6.789062 2.9375 -10.21875 C 3.269531 -13.644531 3.628906 -17.066406 4.015625 -20.484375 C 4.191406 -21.828125 4.554688 -23.039062 5.109375 -24.125 C 5.671875 -25.207031 6.628906 -26.003906 7.984375 -26.515625 C 9.179688 -26.972656 10.4375 -27.132812 11.75 -27 C 13.0625 -26.875 14.289062 -26.582031 15.4375 -26.125 Z M 9.125 -14.40625 C 9.757812 -14.226562 10.484375 -14.125 11.296875 -14.09375 C 12.117188 -14.070312 12.925781 -14.160156 13.71875 -14.359375 C 14.507812 -14.566406 15.171875 -14.914062 15.703125 -15.40625 C 16.234375 -15.90625 16.539062 -16.585938 16.625 -17.453125 C 16.664062 -18.015625 16.46875 -18.554688 16.03125 -19.078125 C 15.601562 -19.597656 15.046875 -20.050781 14.359375 -20.4375 C 13.671875 -20.820312 12.984375 -21.097656 12.296875 -21.265625 C 11.609375 -21.429688 11.023438 -21.445312 10.546875 -21.3125 C 10.265625 -21.21875 10.09375 -21.15625 10.03125 -21.125 C 9.96875 -21.101562 9.9375 -21.050781 9.9375 -20.96875 C 9.9375 -20.894531 9.867188 -20.734375 9.734375 -20.484375 C 9.585938 -20.148438 9.515625 -19.703125 9.515625 -19.140625 C 9.515625 -18.578125 9.5 -18.09375 9.46875 -17.6875 C 9.414062 -17.125 9.359375 -16.578125 9.296875 -16.046875 C 9.234375 -15.515625 9.175781 -14.96875 9.125 -14.40625 Z M 9.125 -14.40625 "/></g></g></g><g fill="#000000" fill-opacity="1"><g transform="translate(48.030901, 326.320759)"><g><path d="M 16.390625 -26.703125 C 16.515625 -27.421875 16.804688 -27.941406 17.265625 -28.265625 C 17.722656 -28.597656 18.238281 -28.765625 18.8125 -28.765625 C 19.382812 -28.765625 19.929688 -28.609375 20.453125 -28.296875 C 20.972656 -27.992188 21.378906 -27.578125 21.671875 -27.046875 C 21.972656 -26.515625 22.046875 -25.890625 21.890625 -25.171875 C 20.515625 -18.140625 19.570312 -11.0625 19.0625 -3.9375 C 19.007812 -3.21875 18.769531 -2.632812 18.34375 -2.1875 C 17.925781 -1.75 17.425781 -1.453125 16.84375 -1.296875 C 16.257812 -1.140625 15.691406 -1.140625 15.140625 -1.296875 C 14.597656 -1.453125 14.144531 -1.742188 13.78125 -2.171875 C 13.425781 -2.609375 13.273438 -3.195312 13.328125 -3.9375 C 13.410156 -5.132812 13.507812 -6.332031 13.625 -7.53125 C 13.738281 -8.726562 13.859375 -9.921875 13.984375 -11.109375 L 8.75 -11.109375 C 8.570312 -9.585938 8.394531 -8.066406 8.21875 -6.546875 C 8.039062 -5.035156 7.859375 -3.53125 7.671875 -2.03125 C 7.578125 -1.289062 7.3125 -0.703125 6.875 -0.265625 C 6.445312 0.160156 5.9375 0.441406 5.34375 0.578125 C 4.757812 0.722656 4.1875 0.722656 3.625 0.578125 C 3.0625 0.441406 2.613281 0.160156 2.28125 -0.265625 C 1.957031 -0.703125 1.847656 -1.289062 1.953125 -2.03125 C 2.179688 -4.113281 2.421875 -6.207031 2.671875 -8.3125 C 2.929688 -10.414062 3.175781 -12.519531 3.40625 -14.625 C 3.53125 -15.625 3.648438 -16.628906 3.765625 -17.640625 C 3.878906 -18.660156 4 -19.679688 4.125 -20.703125 C 4.226562 -21.597656 4.3125 -22.539062 4.375 -23.53125 C 4.4375 -24.519531 4.632812 -25.4375 4.96875 -26.28125 C 5.21875 -26.96875 5.601562 -27.46875 6.125 -27.78125 C 6.65625 -28.101562 7.21875 -28.257812 7.8125 -28.25 C 8.40625 -28.238281 8.957031 -28.085938 9.46875 -27.796875 C 9.976562 -27.503906 10.34375 -27.101562 10.5625 -26.59375 C 10.78125 -26.082031 10.75 -25.46875 10.46875 -24.75 C 10.164062 -23.9375 9.988281 -23.039062 9.9375 -22.0625 C 9.882812 -21.082031 9.804688 -20.160156 9.703125 -19.296875 C 9.648438 -18.890625 9.597656 -18.476562 9.546875 -18.0625 C 9.492188 -17.65625 9.441406 -17.25 9.390625 -16.84375 L 14.703125 -16.84375 C 14.929688 -18.476562 15.1875 -20.125 15.46875 -21.78125 C 15.75 -23.4375 16.054688 -25.078125 16.390625 -26.703125 Z M 16.390625 -26.703125 "/></g></g></g><g fill="#000000" fill-opacity="1"><g transform="translate(71.907806, 326.320759)"><g><path d="M 21.234375 -23.34375 C 21.847656 -22.351562 22.269531 -21.238281 22.5 -20 C 22.726562 -18.757812 22.828125 -17.507812 22.796875 -16.25 C 22.773438 -14.988281 22.675781 -13.8125 22.5 -12.71875 C 22.25 -11.039062 21.726562 -9.445312 20.9375 -7.9375 C 20.144531 -6.4375 19.085938 -5.140625 17.765625 -4.046875 C 16.492188 -3.003906 15.015625 -2.238281 13.328125 -1.75 C 11.648438 -1.269531 10.007812 -1.285156 8.40625 -1.796875 C 7.332031 -2.128906 6.398438 -2.675781 5.609375 -3.4375 C 4.828125 -4.195312 4.164062 -5.066406 3.625 -6.046875 C 3.09375 -7.035156 2.695312 -8.035156 2.4375 -9.046875 C 2.132812 -10.171875 1.957031 -11.460938 1.90625 -12.921875 C 1.851562 -14.390625 1.953125 -15.890625 2.203125 -17.421875 C 2.460938 -18.953125 2.882812 -20.378906 3.46875 -21.703125 C 4.0625 -23.023438 4.851562 -24.117188 5.84375 -24.984375 C 6.863281 -26.023438 8.085938 -26.757812 9.515625 -27.1875 C 10.941406 -27.625 12.40625 -27.773438 13.90625 -27.640625 C 15.40625 -27.503906 16.804688 -27.070312 18.109375 -26.34375 C 19.410156 -25.613281 20.453125 -24.613281 21.234375 -23.34375 Z M 14.28125 -8.484375 C 15.15625 -9.296875 15.800781 -10.242188 16.21875 -11.328125 C 16.632812 -12.410156 16.894531 -13.539062 17 -14.71875 C 17.101562 -15.90625 17.078125 -17.0625 16.921875 -18.1875 C 16.765625 -19.300781 16.320312 -20.210938 15.59375 -20.921875 C 14.875 -21.640625 13.914062 -21.988281 12.71875 -21.96875 C 12.0625 -21.96875 11.421875 -21.800781 10.796875 -21.46875 C 10.171875 -21.132812 9.65625 -20.703125 9.25 -20.171875 C 8.789062 -19.535156 8.457031 -18.769531 8.25 -17.875 C 8.050781 -16.988281 7.898438 -16.160156 7.796875 -15.390625 C 7.566406 -13.691406 7.65625 -12.015625 8.0625 -10.359375 C 8.1875 -9.867188 8.359375 -9.378906 8.578125 -8.890625 C 8.796875 -8.410156 9.109375 -8.019531 9.515625 -7.71875 C 10.171875 -7.226562 10.925781 -7.050781 11.78125 -7.1875 C 12.632812 -7.332031 13.378906 -7.675781 14.015625 -8.21875 C 14.097656 -8.289062 14.1875 -8.378906 14.28125 -8.484375 Z M 14.28125 -8.484375 "/></g></g></g><g fill="#000000" fill-opacity="1"><g transform="translate(96.625189, 326.320759)"><g><path d="M 16.8125 -23.15625 C 16.914062 -23.863281 17.179688 -24.382812 17.609375 -24.71875 C 18.046875 -25.050781 18.550781 -25.21875 19.125 -25.21875 C 19.695312 -25.21875 20.25 -25.0625 20.78125 -24.75 C 21.3125 -24.445312 21.726562 -24.023438 22.03125 -23.484375 C 22.34375 -22.953125 22.445312 -22.332031 22.34375 -21.625 C 21.300781 -14.59375 20.003906 -7.613281 18.453125 -0.6875 C 18.328125 -0.125 18.039062 0.332031 17.59375 0.6875 C 17.144531 1.039062 16.628906 1.257812 16.046875 1.34375 C 15.460938 1.4375 14.90625 1.375 14.375 1.15625 C 13.851562 0.945312 13.46875 0.5625 13.21875 0 C 12.632812 -1.394531 12.035156 -2.785156 11.421875 -4.171875 C 10.804688 -5.566406 10.195312 -6.953125 9.59375 -8.328125 C 9.207031 -6.671875 8.835938 -5.007812 8.484375 -3.34375 C 8.128906 -1.675781 7.796875 -0.015625 7.484375 1.640625 C 7.359375 2.378906 7.066406 2.914062 6.609375 3.25 C 6.148438 3.582031 5.632812 3.738281 5.0625 3.71875 C 4.488281 3.707031 3.941406 3.554688 3.421875 3.265625 C 2.898438 2.972656 2.488281 2.554688 2.1875 2.015625 C 1.894531 1.484375 1.828125 0.847656 1.984375 0.109375 C 3.109375 -5.953125 4.484375 -11.960938 6.109375 -17.921875 C 6.265625 -18.453125 6.570312 -18.894531 7.03125 -19.25 C 7.488281 -19.613281 8.003906 -19.84375 8.578125 -19.9375 C 9.148438 -20.039062 9.691406 -19.988281 10.203125 -19.78125 C 10.710938 -19.582031 11.09375 -19.191406 11.34375 -18.609375 L 14.703125 -10.84375 C 15.109375 -12.882812 15.484375 -14.929688 15.828125 -16.984375 C 16.171875 -19.035156 16.5 -21.09375 16.8125 -23.15625 Z M 16.8125 -23.15625 "/></g></g></g><g fill="#000000" fill-opacity="1"><g transform="translate(120.922333, 326.320759)"><g><path d="M 15.9375 -8.0625 C 16.664062 -8.03125 17.253906 -7.8125 17.703125 -7.40625 C 18.148438 -7 18.441406 -6.507812 18.578125 -5.9375 C 18.722656 -5.363281 18.722656 -4.796875 18.578125 -4.234375 C 18.441406 -3.679688 18.148438 -3.21875 17.703125 -2.84375 C 17.253906 -2.476562 16.664062 -2.304688 15.9375 -2.328125 C 14.195312 -2.398438 12.460938 -2.390625 10.734375 -2.296875 C 9.003906 -2.210938 7.273438 -2.03125 5.546875 -1.75 C 5.003906 -1.675781 4.441406 -1.734375 3.859375 -1.921875 C 3.273438 -2.117188 2.785156 -2.429688 2.390625 -2.859375 C 1.992188 -3.296875 1.847656 -3.859375 1.953125 -4.546875 C 2.378906 -8.054688 2.851562 -11.566406 3.375 -15.078125 C 3.90625 -18.597656 4.472656 -22.117188 5.078125 -25.640625 C 5.160156 -26.066406 5.316406 -26.4375 5.546875 -26.75 C 5.742188 -27.101562 6.03125 -27.398438 6.40625 -27.640625 C 6.789062 -27.878906 7.265625 -28.015625 7.828125 -28.046875 C 10.578125 -28.117188 13.328125 -28.066406 16.078125 -27.890625 C 16.816406 -27.835938 17.410156 -27.597656 17.859375 -27.171875 C 18.304688 -26.753906 18.597656 -26.257812 18.734375 -25.6875 C 18.878906 -25.113281 18.878906 -24.546875 18.734375 -23.984375 C 18.597656 -23.429688 18.304688 -22.972656 17.859375 -22.609375 C 17.410156 -22.253906 16.816406 -22.101562 16.078125 -22.15625 C 14.191406 -22.28125 12.269531 -22.34375 10.3125 -22.34375 C 10.1875 -21.601562 10.054688 -20.863281 9.921875 -20.125 C 9.796875 -19.394531 9.6875 -18.660156 9.59375 -17.921875 C 10.632812 -17.890625 11.640625 -17.820312 12.609375 -17.71875 C 13.367188 -17.644531 14.035156 -17.359375 14.609375 -16.859375 C 15.179688 -16.367188 15.46875 -15.703125 15.46875 -14.859375 C 15.46875 -14.378906 15.332031 -13.910156 15.0625 -13.453125 C 14.800781 -12.992188 14.453125 -12.625 14.015625 -12.34375 C 13.585938 -12.0625 13.117188 -11.945312 12.609375 -12 C 11.304688 -12.125 10.003906 -12.1875 8.703125 -12.1875 C 8.609375 -11.46875 8.507812 -10.738281 8.40625 -10 C 8.300781 -9.269531 8.195312 -8.546875 8.09375 -7.828125 C 9.394531 -7.953125 10.691406 -8.035156 11.984375 -8.078125 C 13.285156 -8.117188 14.601562 -8.113281 15.9375 -8.0625 Z M 15.9375 -8.0625 "/></g></g></g><g fill="#000000" fill-opacity="1"><g transform="translate(141.66659, 326.320759)"><g/></g></g><g fill="#000000" fill-opacity="1"><g transform="translate(153.280317, 326.320759)"><g><path d="M 15.9375 -8.09375 C 16.664062 -8.070312 17.253906 -7.863281 17.703125 -7.46875 C 18.148438 -7.070312 18.441406 -6.585938 18.578125 -6.015625 C 18.722656 -5.441406 18.722656 -4.867188 18.578125 -4.296875 C 18.441406 -3.722656 18.148438 -3.25 17.703125 -2.875 C 17.253906 -2.507812 16.664062 -2.351562 15.9375 -2.40625 C 14.195312 -2.457031 12.460938 -2.441406 10.734375 -2.359375 C 9.003906 -2.285156 7.273438 -2.109375 5.546875 -1.828125 C 5.003906 -1.734375 4.441406 -1.78125 3.859375 -1.96875 C 3.273438 -2.15625 2.785156 -2.460938 2.390625 -2.890625 C 1.992188 -3.328125 1.847656 -3.890625 1.953125 -4.578125 C 2.378906 -8.117188 2.851562 -11.644531 3.375 -15.15625 C 3.90625 -18.675781 4.472656 -22.179688 5.078125 -25.671875 C 5.160156 -26.109375 5.316406 -26.488281 5.546875 -26.8125 C 5.742188 -27.175781 6.03125 -27.472656 6.40625 -27.703125 C 6.789062 -27.929688 7.265625 -28.054688 7.828125 -28.078125 C 10.578125 -28.179688 13.328125 -28.128906 16.078125 -27.921875 C 16.816406 -27.867188 17.410156 -27.632812 17.859375 -27.21875 C 18.304688 -26.800781 18.597656 -26.304688 18.734375 -25.734375 C 18.878906 -25.160156 18.878906 -24.59375 18.734375 -24.03125 C 18.597656 -23.46875 18.304688 -23.007812 17.859375 -22.65625 C 17.410156 -22.300781 16.816406 -22.148438 16.078125 -22.203125 C 14.191406 -22.328125 12.269531 -22.390625 10.3125 -22.390625 C 10.1875 -21.648438 10.054688 -20.910156 9.921875 -20.171875 C 9.796875 -19.429688 9.6875 -18.691406 9.59375 -17.953125 C 10.632812 -17.929688 11.640625 -17.878906 12.609375 -17.796875 C 13.367188 -17.703125 14.035156 -17.410156 14.609375 -16.921875 C 15.179688 -16.441406 15.46875 -15.78125 15.46875 -14.9375 C 15.46875 -14.457031 15.332031 -13.988281 15.0625 -13.53125 C 14.800781 -13.070312 14.453125 -12.703125 14.015625 -12.421875 C 13.585938 -12.140625 13.117188 -12.023438 12.609375 -12.078125 C 11.304688 -12.203125 10.003906 -12.25 8.703125 -12.21875 C 8.609375 -11.507812 8.507812 -10.789062 8.40625 -10.0625 C 8.300781 -9.34375 8.195312 -8.613281 8.09375 -7.875 C 9.394531 -8 10.691406 -8.085938 11.984375 -8.140625 C 13.285156 -8.191406 14.601562 -8.175781 15.9375 -8.09375 Z M 15.9375 -8.09375 "/></g></g></g><g fill="#000000" fill-opacity="1"><g transform="translate(174.024575, 326.320759)"><g><path d="M 19.796875 -16.6875 C 19.867188 -14.164062 19.929688 -11.628906 19.984375 -9.078125 C 20.035156 -6.535156 20.097656 -3.992188 20.171875 -1.453125 C 20.191406 -0.710938 20.007812 -0.117188 19.625 0.328125 C 19.25 0.773438 18.78125 1.066406 18.21875 1.203125 C 17.65625 1.335938 17.085938 1.335938 16.515625 1.203125 C 15.941406 1.066406 15.457031 0.773438 15.0625 0.328125 C 14.675781 -0.117188 14.46875 -0.710938 14.4375 -1.453125 C 14.414062 -2.210938 14.394531 -2.96875 14.375 -3.71875 C 14.363281 -4.476562 14.347656 -5.238281 14.328125 -6 L 8.59375 -6.234375 C 8.394531 -5.265625 8.203125 -4.300781 8.015625 -3.34375 C 7.835938 -2.382812 7.660156 -1.421875 7.484375 -0.453125 C 7.359375 0.285156 7.070312 0.816406 6.625 1.140625 C 6.175781 1.472656 5.660156 1.632812 5.078125 1.625 C 4.492188 1.613281 3.941406 1.457031 3.421875 1.15625 C 2.898438 0.863281 2.488281 0.453125 2.1875 -0.078125 C 1.894531 -0.609375 1.816406 -1.242188 1.953125 -1.984375 C 2.410156 -4.484375 2.925781 -6.953125 3.5 -9.390625 C 4.070312 -11.835938 4.878906 -14.222656 5.921875 -16.546875 C 6.429688 -17.691406 7.078125 -18.925781 7.859375 -20.25 C 8.648438 -21.570312 9.550781 -22.785156 10.5625 -23.890625 C 11.570312 -25.003906 12.6875 -25.816406 13.90625 -26.328125 C 15.050781 -26.804688 15.976562 -26.890625 16.6875 -26.578125 C 17.40625 -26.273438 17.96875 -25.726562 18.375 -24.9375 C 18.78125 -24.15625 19.078125 -23.25 19.265625 -22.21875 C 19.460938 -21.1875 19.59375 -20.171875 19.65625 -19.171875 C 19.71875 -18.179688 19.765625 -17.351562 19.796875 -16.6875 Z M 10.15625 -11.875 C 10.84375 -11.851562 11.519531 -11.828125 12.1875 -11.796875 C 12.851562 -11.773438 13.515625 -11.753906 14.171875 -11.734375 C 14.148438 -12.566406 14.128906 -13.394531 14.109375 -14.21875 C 14.097656 -15.050781 14.082031 -15.875 14.0625 -16.6875 C 14.03125 -17.019531 14.015625 -17.367188 14.015625 -17.734375 C 14.015625 -18.109375 14.015625 -18.488281 14.015625 -18.875 C 13.585938 -18.363281 13.21875 -17.878906 12.90625 -17.421875 C 12.40625 -16.660156 11.941406 -15.863281 11.515625 -15.03125 C 11.097656 -14.207031 10.722656 -13.375 10.390625 -12.53125 C 10.367188 -12.425781 10.335938 -12.316406 10.296875 -12.203125 C 10.253906 -12.085938 10.207031 -11.976562 10.15625 -11.875 Z M 10.15625 -11.875 "/></g></g></g><g fill="#000000" fill-opacity="1"><g transform="translate(196.105937, 326.320759)"><g><path d="M 17.421875 -26.25 C 18.128906 -26.144531 18.703125 -25.875 19.140625 -25.4375 C 19.578125 -25.007812 19.867188 -24.5 20.015625 -23.90625 C 20.171875 -23.320312 20.171875 -22.75 20.015625 -22.1875 C 19.867188 -21.632812 19.578125 -21.195312 19.140625 -20.875 C 18.703125 -20.5625 18.128906 -20.441406 17.421875 -20.515625 C 16.242188 -20.671875 15.019531 -20.785156 13.75 -20.859375 C 13.570312 -18.078125 13.398438 -15.296875 13.234375 -12.515625 C 13.066406 -9.742188 12.894531 -6.960938 12.71875 -4.171875 C 12.695312 -3.453125 12.472656 -2.867188 12.046875 -2.421875 C 11.628906 -1.972656 11.132812 -1.671875 10.5625 -1.515625 C 9.988281 -1.367188 9.421875 -1.367188 8.859375 -1.515625 C 8.296875 -1.671875 7.835938 -1.96875 7.484375 -2.40625 C 7.128906 -2.84375 6.960938 -3.429688 6.984375 -4.171875 C 7.171875 -6.960938 7.34375 -9.753906 7.5 -12.546875 C 7.664062 -15.335938 7.835938 -18.132812 8.015625 -20.9375 C 6.867188 -20.882812 5.75 -20.804688 4.65625 -20.703125 C 3.914062 -20.628906 3.320312 -20.765625 2.875 -21.109375 C 2.4375 -21.453125 2.144531 -21.898438 2 -22.453125 C 1.863281 -23.015625 1.867188 -23.582031 2.015625 -24.15625 C 2.171875 -24.726562 2.460938 -25.234375 2.890625 -25.671875 C 3.328125 -26.109375 3.914062 -26.363281 4.65625 -26.4375 C 8.914062 -26.875 13.171875 -26.8125 17.421875 -26.25 Z M 17.421875 -26.25 "/></g></g></g><g fill="#000000" fill-opacity="1"><g transform="translate(218.149087, 326.320759)"><g><path d="M 14.25 -16.5 C 15.675781 -15.53125 16.800781 -14.269531 17.625 -12.71875 C 18.457031 -11.164062 18.785156 -9.507812 18.609375 -7.75 C 18.429688 -6.226562 17.90625 -4.914062 17.03125 -3.8125 C 16.164062 -2.71875 15.101562 -1.863281 13.84375 -1.25 C 12.582031 -0.644531 11.242188 -0.3125 9.828125 -0.25 C 8.421875 -0.1875 7.066406 -0.421875 5.765625 -0.953125 C 4.472656 -1.484375 3.378906 -2.347656 2.484375 -3.546875 C 2.023438 -4.140625 1.832031 -4.707031 1.90625 -5.25 C 1.988281 -5.800781 2.222656 -6.28125 2.609375 -6.6875 C 3.003906 -7.09375 3.492188 -7.378906 4.078125 -7.546875 C 4.671875 -7.710938 5.265625 -7.71875 5.859375 -7.5625 C 6.460938 -7.40625 6.976562 -7.035156 7.40625 -6.453125 C 7.613281 -6.171875 7.992188 -6.007812 8.546875 -5.96875 C 9.109375 -5.9375 9.671875 -5.960938 10.234375 -6.046875 C 10.796875 -6.140625 11.191406 -6.238281 11.421875 -6.34375 C 11.953125 -6.59375 12.351562 -6.96875 12.625 -7.46875 C 12.894531 -7.96875 12.988281 -8.507812 12.90625 -9.09375 C 12.832031 -9.800781 12.578125 -10.382812 12.140625 -10.84375 C 11.710938 -11.300781 11.195312 -11.703125 10.59375 -12.046875 C 10 -12.390625 9.394531 -12.722656 8.78125 -13.046875 C 8.175781 -13.367188 7.644531 -13.71875 7.1875 -14.09375 C 5.90625 -15.21875 5.125 -16.4375 4.84375 -17.75 C 4.570312 -19.0625 4.671875 -20.367188 5.140625 -21.671875 C 5.609375 -22.984375 6.335938 -24.175781 7.328125 -25.25 C 8.328125 -26.320312 9.460938 -27.148438 10.734375 -27.734375 C 11.421875 -28.066406 12.054688 -28.15625 12.640625 -28 C 13.234375 -27.851562 13.738281 -27.566406 14.15625 -27.140625 C 14.570312 -26.722656 14.859375 -26.234375 15.015625 -25.671875 C 15.171875 -25.109375 15.144531 -24.566406 14.9375 -24.046875 C 14.726562 -23.523438 14.296875 -23.113281 13.640625 -22.8125 C 13.203125 -22.601562 12.695312 -22.320312 12.125 -21.96875 C 11.550781 -21.613281 11.078125 -21.1875 10.703125 -20.6875 C 10.335938 -20.1875 10.269531 -19.632812 10.5 -19.03125 C 10.632812 -18.613281 10.9375 -18.257812 11.40625 -17.96875 C 11.875 -17.675781 12.375 -17.414062 12.90625 -17.1875 C 13.445312 -16.957031 13.894531 -16.726562 14.25 -16.5 Z M 14.25 -16.5 "/></g></g></g><g fill="#000000" fill-opacity="1"><g transform="translate(238.702331, 326.320759)"><g/></g></g><g fill="#000000" fill-opacity="1"><g transform="translate(250.316046, 326.320759)"><g><path d="M 17.265625 -26.546875 C 18.003906 -26.648438 18.640625 -26.554688 19.171875 -26.265625 C 19.710938 -25.972656 20.128906 -25.554688 20.421875 -25.015625 C 20.710938 -24.484375 20.863281 -23.9375 20.875 -23.375 C 20.882812 -22.820312 20.722656 -22.320312 20.390625 -21.875 C 20.066406 -21.425781 19.535156 -21.140625 18.796875 -21.015625 C 17.492188 -20.804688 16.191406 -20.597656 14.890625 -20.390625 C 13.597656 -20.191406 12.300781 -19.992188 11 -19.796875 C 10.976562 -19.796875 10.867188 -19.773438 10.671875 -19.734375 C 10.484375 -19.691406 10.273438 -19.660156 10.046875 -19.640625 C 10.046875 -19.460938 10.035156 -19.332031 10.015625 -19.25 C 10.054688 -18.664062 10.015625 -18.046875 9.890625 -17.390625 C 9.765625 -16.742188 9.664062 -16.128906 9.59375 -15.546875 C 9.59375 -15.472656 9.582031 -15.390625 9.5625 -15.296875 C 9.550781 -15.210938 9.546875 -15.117188 9.546875 -15.015625 C 11.515625 -15.316406 13.460938 -15.484375 15.390625 -15.515625 C 16.128906 -15.535156 16.722656 -15.351562 17.171875 -14.96875 C 17.617188 -14.59375 17.910156 -14.117188 18.046875 -13.546875 C 18.191406 -12.972656 18.191406 -12.40625 18.046875 -11.84375 C 17.910156 -11.28125 17.617188 -10.800781 17.171875 -10.40625 C 16.722656 -10.007812 16.128906 -9.800781 15.390625 -9.78125 C 13.179688 -9.75 10.976562 -9.503906 8.78125 -9.046875 C 8.582031 -7.546875 8.375 -6.046875 8.15625 -4.546875 C 7.9375 -3.046875 7.710938 -1.539062 7.484375 -0.03125 C 7.359375 0.695312 7.078125 1.226562 6.640625 1.5625 C 6.210938 1.894531 5.710938 2.054688 5.140625 2.046875 C 4.566406 2.035156 4.007812 1.878906 3.46875 1.578125 C 2.9375 1.285156 2.523438 0.875 2.234375 0.34375 C 1.941406 -0.1875 1.847656 -0.8125 1.953125 -1.53125 C 2.460938 -4.707031 2.910156 -7.890625 3.296875 -11.078125 C 3.691406 -14.265625 4.070312 -17.445312 4.4375 -20.625 C 4.582031 -22 4.972656 -23.039062 5.609375 -23.75 C 6.253906 -24.46875 7.265625 -24.941406 8.640625 -25.171875 C 10.054688 -25.429688 11.488281 -25.664062 12.9375 -25.875 C 14.394531 -26.09375 15.835938 -26.316406 17.265625 -26.546875 Z M 17.265625 -26.546875 "/></g></g></g><g fill="#000000" fill-opacity="1"><g transform="translate(273.085073, 326.320759)"><g><path d="M 3.625 -23.53125 C 3.707031 -24.25 3.960938 -24.820312 4.390625 -25.25 C 4.828125 -25.6875 5.335938 -25.976562 5.921875 -26.125 C 6.503906 -26.28125 7.078125 -26.285156 7.640625 -26.140625 C 8.203125 -26.003906 8.644531 -25.710938 8.96875 -25.265625 C 9.300781 -24.828125 9.429688 -24.25 9.359375 -23.53125 C 8.617188 -16.632812 8.046875 -9.71875 7.640625 -2.78125 C 7.585938 -2.050781 7.359375 -1.460938 6.953125 -1.015625 C 6.546875 -0.566406 6.054688 -0.269531 5.484375 -0.125 C 4.910156 0.0078125 4.34375 0.0078125 3.78125 -0.125 C 3.21875 -0.269531 2.75 -0.566406 2.375 -1.015625 C 2.007812 -1.460938 1.851562 -2.050781 1.90625 -2.78125 C 2.3125 -9.71875 2.882812 -16.632812 3.625 -23.53125 Z M 3.625 -23.53125 "/></g></g></g><g fill="#000000" fill-opacity="1"><g transform="translate(284.393162, 326.320759)"><g><path d="M 21.734375 -3.59375 C 22.171875 -2.976562 22.347656 -2.394531 22.265625 -1.84375 C 22.191406 -1.300781 21.953125 -0.828125 21.546875 -0.421875 C 21.140625 -0.015625 20.648438 0.269531 20.078125 0.4375 C 19.503906 0.601562 18.914062 0.601562 18.3125 0.4375 C 17.71875 0.269531 17.203125 -0.101562 16.765625 -0.6875 C 15.617188 -2.269531 14.335938 -3.722656 12.921875 -5.046875 C 11.515625 -6.367188 9.992188 -7.566406 8.359375 -8.640625 C 8.234375 -7.128906 8.113281 -5.613281 8 -4.09375 C 7.882812 -2.582031 7.765625 -1.078125 7.640625 0.421875 C 7.585938 1.160156 7.347656 1.742188 6.921875 2.171875 C 6.503906 2.609375 6.003906 2.898438 5.421875 3.046875 C 4.835938 3.203125 4.269531 3.207031 3.71875 3.0625 C 3.175781 2.925781 2.722656 2.632812 2.359375 2.1875 C 2.003906 1.75 1.851562 1.160156 1.90625 0.421875 C 2.132812 -2.359375 2.3125 -5.1875 2.4375 -8.0625 C 2.570312 -10.9375 2.914062 -13.75 3.46875 -16.5 C 3.75 -17.925781 4.269531 -19.300781 5.03125 -20.625 C 5.800781 -21.945312 6.773438 -23.039062 7.953125 -23.90625 C 9.140625 -24.78125 10.523438 -25.253906 12.109375 -25.328125 C 13.203125 -25.378906 14.238281 -25.175781 15.21875 -24.71875 C 16.195312 -24.257812 17.03125 -23.617188 17.71875 -22.796875 C 18.40625 -21.984375 18.867188 -21.066406 19.109375 -20.046875 C 19.359375 -19.035156 19.304688 -17.984375 18.953125 -16.890625 C 18.585938 -15.796875 18.003906 -14.765625 17.203125 -13.796875 C 16.398438 -12.828125 15.476562 -11.984375 14.4375 -11.265625 C 17.164062 -9.054688 19.597656 -6.5 21.734375 -3.59375 Z M 11.5 -16.3125 C 11.65625 -16.46875 11.910156 -16.703125 12.265625 -17.015625 C 12.617188 -17.335938 12.9375 -17.675781 13.21875 -18.03125 C 13.5 -18.382812 13.613281 -18.664062 13.5625 -18.875 C 13.457031 -19.40625 13.257812 -19.695312 12.96875 -19.75 C 12.675781 -19.800781 12.34375 -19.71875 11.96875 -19.5 C 11.601562 -19.28125 11.242188 -18.984375 10.890625 -18.609375 C 10.535156 -18.242188 10.226562 -17.894531 9.96875 -17.5625 C 9.71875 -17.238281 9.550781 -17 9.46875 -16.84375 C 9.269531 -16.257812 9.09375 -15.625 8.9375 -14.9375 C 9.445312 -15.007812 9.90625 -15.164062 10.3125 -15.40625 C 10.71875 -15.65625 11.113281 -15.957031 11.5 -16.3125 Z M 11.5 -16.3125 "/></g></g></g><g fill="#000000" fill-opacity="1"><g transform="translate(308.575694, 326.320759)"><g><path d="M 14.25 -16.5 C 15.675781 -15.53125 16.800781 -14.269531 17.625 -12.71875 C 18.457031 -11.164062 18.785156 -9.507812 18.609375 -7.75 C 18.429688 -6.226562 17.90625 -4.914062 17.03125 -3.8125 C 16.164062 -2.71875 15.101562 -1.863281 13.84375 -1.25 C 12.582031 -0.644531 11.242188 -0.3125 9.828125 -0.25 C 8.421875 -0.1875 7.066406 -0.421875 5.765625 -0.953125 C 4.472656 -1.484375 3.378906 -2.347656 2.484375 -3.546875 C 2.023438 -4.140625 1.832031 -4.707031 1.90625 -5.25 C 1.988281 -5.800781 2.222656 -6.28125 2.609375 -6.6875 C 3.003906 -7.09375 3.492188 -7.378906 4.078125 -7.546875 C 4.671875 -7.710938 5.265625 -7.71875 5.859375 -7.5625 C 6.460938 -7.40625 6.976562 -7.035156 7.40625 -6.453125 C 7.613281 -6.171875 7.992188 -6.007812 8.546875 -5.96875 C 9.109375 -5.9375 9.671875 -5.960938 10.234375 -6.046875 C 10.796875 -6.140625 11.191406 -6.238281 11.421875 -6.34375 C 11.953125 -6.59375 12.351562 -6.96875 12.625 -7.46875 C 12.894531 -7.96875 12.988281 -8.507812 12.90625 -9.09375 C 12.832031 -9.800781 12.578125 -10.382812 12.140625 -10.84375 C 11.710938 -11.300781 11.195312 -11.703125 10.59375 -12.046875 C 10 -12.390625 9.394531 -12.722656 8.78125 -13.046875 C 8.175781 -13.367188 7.644531 -13.71875 7.1875 -14.09375 C 5.90625 -15.21875 5.125 -16.4375 4.84375 -17.75 C 4.570312 -19.0625 4.671875 -20.367188 5.140625 -21.671875 C 5.609375 -22.984375 6.335938 -24.175781 7.328125 -25.25 C 8.328125 -26.320312 9.460938 -27.148438 10.734375 -27.734375 C 11.421875 -28.066406 12.054688 -28.15625 12.640625 -28 C 13.234375 -27.851562 13.738281 -27.566406 14.15625 -27.140625 C 14.570312 -26.722656 14.859375 -26.234375 15.015625 -25.671875 C 15.171875 -25.109375 15.144531 -24.566406 14.9375 -24.046875 C 14.726562 -23.523438 14.296875 -23.113281 13.640625 -22.8125 C 13.203125 -22.601562 12.695312 -22.320312 12.125 -21.96875 C 11.550781 -21.613281 11.078125 -21.1875 10.703125 -20.6875 C 10.335938 -20.1875 10.269531 -19.632812 10.5 -19.03125 C 10.632812 -18.613281 10.9375 -18.257812 11.40625 -17.96875 C 11.875 -17.675781 12.375 -17.414062 12.90625 -17.1875 C 13.445312 -16.957031 13.894531 -16.726562 14.25 -16.5 Z M 14.25 -16.5 "/></g></g></g><g fill="#000000" fill-opacity="1"><g transform="translate(329.128938, 326.320759)"><g><path d="M 17.421875 -26.25 C 18.128906 -26.144531 18.703125 -25.875 19.140625 -25.4375 C 19.578125 -25.007812 19.867188 -24.5 20.015625 -23.90625 C 20.171875 -23.320312 20.171875 -22.75 20.015625 -22.1875 C 19.867188 -21.632812 19.578125 -21.195312 19.140625 -20.875 C 18.703125 -20.5625 18.128906 -20.441406 17.421875 -20.515625 C 16.242188 -20.671875 15.019531 -20.785156 13.75 -20.859375 C 13.570312 -18.078125 13.398438 -15.296875 13.234375 -12.515625 C 13.066406 -9.742188 12.894531 -6.960938 12.71875 -4.171875 C 12.695312 -3.453125 12.472656 -2.867188 12.046875 -2.421875 C 11.628906 -1.972656 11.132812 -1.671875 10.5625 -1.515625 C 9.988281 -1.367188 9.421875 -1.367188 8.859375 -1.515625 C 8.296875 -1.671875 7.835938 -1.96875 7.484375 -2.40625 C 7.128906 -2.84375 6.960938 -3.429688 6.984375 -4.171875 C 7.171875 -6.960938 7.34375 -9.753906 7.5 -12.546875 C 7.664062 -15.335938 7.835938 -18.132812 8.015625 -20.9375 C 6.867188 -20.882812 5.75 -20.804688 4.65625 -20.703125 C 3.914062 -20.628906 3.320312 -20.765625 2.875 -21.109375 C 2.4375 -21.453125 2.144531 -21.898438 2 -22.453125 C 1.863281 -23.015625 1.867188 -23.582031 2.015625 -24.15625 C 2.171875 -24.726562 2.460938 -25.234375 2.890625 -25.671875 C 3.328125 -26.109375 3.914062 -26.363281 4.65625 -26.4375 C 8.914062 -26.875 13.171875 -26.8125 17.421875 -26.25 Z M 17.421875 -26.25 "/></g></g></g></svg>